<mxfile host="Electron" agent="Mozilla/5.0 (Windows NT 10.0; Win64; x64) AppleWebKit/537.36 (KHTML, like Gecko) draw.io/24.7.17 Chrome/128.0.6613.36 Electron/32.0.1 Safari/537.36" version="24.7.17">
  <diagram name="Sivu-1" id="S3V-3oTMrV3wkttXghbh">
    <mxGraphModel dx="1434" dy="956" grid="1" gridSize="10" guides="1" tooltips="1" connect="1" arrows="1" fold="1" page="1" pageScale="1" pageWidth="1169" pageHeight="827" math="0" shadow="0">
      <root>
        <mxCell id="0" />
        <mxCell id="1" parent="0" />
        <mxCell id="iajtI-PUkXcmTMDwEMEo-1" value="cryptography" style="shape=process;whiteSpace=wrap;html=1;backgroundOutline=1;fillColor=#e6d0de;gradientColor=#d5739d;strokeColor=#996185;" vertex="1" parent="1">
          <mxGeometry x="40" y="330" width="120" height="60" as="geometry" />
        </mxCell>
        <mxCell id="iajtI-PUkXcmTMDwEMEo-3" value="administrative.py" style="shape=document;whiteSpace=wrap;html=1;boundedLbl=1;fillColor=#fff2cc;strokeColor=#d6b656;gradientColor=#ffd966;" vertex="1" parent="1">
          <mxGeometry x="570" y="440" width="120" height="80" as="geometry" />
        </mxCell>
        <mxCell id="iajtI-PUkXcmTMDwEMEo-13" style="edgeStyle=orthogonalEdgeStyle;rounded=0;orthogonalLoop=1;jettySize=auto;html=1;entryX=0;entryY=0.5;entryDx=0;entryDy=0;" edge="1" parent="1" source="iajtI-PUkXcmTMDwEMEo-5" target="iajtI-PUkXcmTMDwEMEo-6">
          <mxGeometry relative="1" as="geometry" />
        </mxCell>
        <mxCell id="iajtI-PUkXcmTMDwEMEo-5" value="administrative.ui" style="shape=note;whiteSpace=wrap;html=1;backgroundOutline=1;darkOpacity=0.05;fillColor=#ffcd28;gradientColor=#ffa500;strokeColor=#d79b00;" vertex="1" parent="1">
          <mxGeometry x="210" y="445" width="120" height="70" as="geometry" />
        </mxCell>
        <mxCell id="iajtI-PUkXcmTMDwEMEo-12" style="edgeStyle=orthogonalEdgeStyle;rounded=0;orthogonalLoop=1;jettySize=auto;html=1;entryX=0;entryY=0.5;entryDx=0;entryDy=0;" edge="1" parent="1" source="iajtI-PUkXcmTMDwEMEo-6" target="iajtI-PUkXcmTMDwEMEo-3">
          <mxGeometry relative="1" as="geometry" />
        </mxCell>
        <mxCell id="iajtI-PUkXcmTMDwEMEo-6" value="administrative_ui.py" style="shape=document;whiteSpace=wrap;html=1;boundedLbl=1;fillColor=#ffcd28;strokeColor=#d79b00;gradientColor=#ffa500;" vertex="1" parent="1">
          <mxGeometry x="410" y="440" width="120" height="80" as="geometry" />
        </mxCell>
        <mxCell id="iajtI-PUkXcmTMDwEMEo-11" style="edgeStyle=orthogonalEdgeStyle;rounded=0;orthogonalLoop=1;jettySize=auto;html=1;entryX=0.25;entryY=0;entryDx=0;entryDy=0;" edge="1" parent="1" source="iajtI-PUkXcmTMDwEMEo-7" target="iajtI-PUkXcmTMDwEMEo-3">
          <mxGeometry relative="1" as="geometry" />
        </mxCell>
        <mxCell id="iajtI-PUkXcmTMDwEMEo-7" value="cipher.py" style="shape=document;whiteSpace=wrap;html=1;boundedLbl=1;fillColor=#ffcd28;strokeColor=#d79b00;gradientColor=#ffa500;" vertex="1" parent="1">
          <mxGeometry x="410" y="330" width="120" height="80" as="geometry" />
        </mxCell>
        <mxCell id="iajtI-PUkXcmTMDwEMEo-10" style="edgeStyle=orthogonalEdgeStyle;rounded=0;orthogonalLoop=1;jettySize=auto;html=1;entryX=0.008;entryY=0.375;entryDx=0;entryDy=0;entryPerimeter=0;" edge="1" parent="1" source="iajtI-PUkXcmTMDwEMEo-1" target="iajtI-PUkXcmTMDwEMEo-7">
          <mxGeometry relative="1" as="geometry" />
        </mxCell>
        <mxCell id="iajtI-PUkXcmTMDwEMEo-16" value="cryptography" style="shape=process;whiteSpace=wrap;html=1;backgroundOutline=1;fillColor=#e6d0de;gradientColor=#d5739d;strokeColor=#996185;" vertex="1" parent="1">
          <mxGeometry x="40" y="330" width="120" height="60" as="geometry" />
        </mxCell>
        <mxCell id="iajtI-PUkXcmTMDwEMEo-35" style="edgeStyle=orthogonalEdgeStyle;rounded=0;orthogonalLoop=1;jettySize=auto;html=1;" edge="1" parent="1" source="iajtI-PUkXcmTMDwEMEo-17" target="iajtI-PUkXcmTMDwEMEo-18">
          <mxGeometry relative="1" as="geometry" />
        </mxCell>
        <mxCell id="iajtI-PUkXcmTMDwEMEo-41" style="edgeStyle=orthogonalEdgeStyle;rounded=0;orthogonalLoop=1;jettySize=auto;html=1;entryX=0.192;entryY=1.013;entryDx=0;entryDy=0;entryPerimeter=0;" edge="1" parent="1" target="iajtI-PUkXcmTMDwEMEo-28">
          <mxGeometry relative="1" as="geometry">
            <mxPoint x="99.5" y="430" as="targetPoint" />
            <mxPoint x="99.5" y="760" as="sourcePoint" />
          </mxGeometry>
        </mxCell>
        <mxCell id="iajtI-PUkXcmTMDwEMEo-42" style="edgeStyle=orthogonalEdgeStyle;rounded=0;orthogonalLoop=1;jettySize=auto;html=1;entryX=0.15;entryY=-0.05;entryDx=0;entryDy=0;entryPerimeter=0;" edge="1" parent="1" source="iajtI-PUkXcmTMDwEMEo-17" target="iajtI-PUkXcmTMDwEMEo-22">
          <mxGeometry relative="1" as="geometry">
            <mxPoint x="430" y="420" as="targetPoint" />
            <Array as="points">
              <mxPoint x="90" y="585" />
              <mxPoint x="91" y="585" />
              <mxPoint x="91" y="420" />
              <mxPoint x="428" y="420" />
            </Array>
          </mxGeometry>
        </mxCell>
        <mxCell id="iajtI-PUkXcmTMDwEMEo-17" value="PySide6" style="rounded=0;whiteSpace=wrap;html=1;fillColor=#dae8fc;gradientColor=#7ea6e0;strokeColor=#6c8ebf;" vertex="1" parent="1">
          <mxGeometry x="30" y="760" width="120" height="60" as="geometry" />
        </mxCell>
        <mxCell id="iajtI-PUkXcmTMDwEMEo-18" value="administrative.py" style="shape=document;whiteSpace=wrap;html=1;boundedLbl=1;fillColor=#fff2cc;strokeColor=#d6b656;gradientColor=#ffd966;" vertex="1" parent="1">
          <mxGeometry x="570" y="440" width="120" height="80" as="geometry" />
        </mxCell>
        <mxCell id="iajtI-PUkXcmTMDwEMEo-19" style="edgeStyle=orthogonalEdgeStyle;rounded=0;orthogonalLoop=1;jettySize=auto;html=1;entryX=0;entryY=0.5;entryDx=0;entryDy=0;" edge="1" parent="1" source="iajtI-PUkXcmTMDwEMEo-20" target="iajtI-PUkXcmTMDwEMEo-22">
          <mxGeometry relative="1" as="geometry" />
        </mxCell>
        <mxCell id="iajtI-PUkXcmTMDwEMEo-20" value="administrative.ui" style="shape=note;whiteSpace=wrap;html=1;backgroundOutline=1;darkOpacity=0.05;fillColor=#ffcd28;gradientColor=#ffa500;strokeColor=#d79b00;" vertex="1" parent="1">
          <mxGeometry x="210" y="445" width="120" height="70" as="geometry" />
        </mxCell>
        <mxCell id="iajtI-PUkXcmTMDwEMEo-21" style="edgeStyle=orthogonalEdgeStyle;rounded=0;orthogonalLoop=1;jettySize=auto;html=1;entryX=0;entryY=0.5;entryDx=0;entryDy=0;" edge="1" parent="1" source="iajtI-PUkXcmTMDwEMEo-22" target="iajtI-PUkXcmTMDwEMEo-18">
          <mxGeometry relative="1" as="geometry" />
        </mxCell>
        <mxCell id="iajtI-PUkXcmTMDwEMEo-22" value="administrative_ui.py" style="shape=document;whiteSpace=wrap;html=1;boundedLbl=1;fillColor=#ffcd28;strokeColor=#d79b00;gradientColor=#ffa500;" vertex="1" parent="1">
          <mxGeometry x="410" y="440" width="120" height="80" as="geometry" />
        </mxCell>
        <mxCell id="iajtI-PUkXcmTMDwEMEo-23" style="edgeStyle=orthogonalEdgeStyle;rounded=0;orthogonalLoop=1;jettySize=auto;html=1;entryX=0.25;entryY=0;entryDx=0;entryDy=0;" edge="1" parent="1" source="iajtI-PUkXcmTMDwEMEo-24" target="iajtI-PUkXcmTMDwEMEo-18">
          <mxGeometry relative="1" as="geometry" />
        </mxCell>
        <mxCell id="iajtI-PUkXcmTMDwEMEo-24" value="cipher.py" style="shape=document;whiteSpace=wrap;html=1;boundedLbl=1;fillColor=#ffcd28;strokeColor=#d79b00;gradientColor=#ffa500;" vertex="1" parent="1">
          <mxGeometry x="410" y="330" width="120" height="80" as="geometry" />
        </mxCell>
        <mxCell id="iajtI-PUkXcmTMDwEMEo-25" style="edgeStyle=orthogonalEdgeStyle;rounded=0;orthogonalLoop=1;jettySize=auto;html=1;entryX=0;entryY=0.5;entryDx=0;entryDy=0;" edge="1" parent="1" source="iajtI-PUkXcmTMDwEMEo-26" target="iajtI-PUkXcmTMDwEMEo-28">
          <mxGeometry relative="1" as="geometry" />
        </mxCell>
        <mxCell id="iajtI-PUkXcmTMDwEMEo-26" value="SettingdDialog.ui" style="shape=note;whiteSpace=wrap;html=1;backgroundOutline=1;darkOpacity=0.05;fillColor=#ffcd28;gradientColor=#ffa500;strokeColor=#d79b00;" vertex="1" parent="1">
          <mxGeometry x="210" y="650" width="120" height="70" as="geometry" />
        </mxCell>
        <mxCell id="iajtI-PUkXcmTMDwEMEo-27" style="edgeStyle=orthogonalEdgeStyle;rounded=0;orthogonalLoop=1;jettySize=auto;html=1;entryX=0.25;entryY=0.988;entryDx=0;entryDy=0;entryPerimeter=0;" edge="1" parent="1" source="iajtI-PUkXcmTMDwEMEo-28" target="iajtI-PUkXcmTMDwEMEo-18">
          <mxGeometry relative="1" as="geometry" />
        </mxCell>
        <mxCell id="iajtI-PUkXcmTMDwEMEo-28" value="settingsDialog_ui.py" style="shape=document;whiteSpace=wrap;html=1;boundedLbl=1;fillColor=#ffcd28;strokeColor=#d79b00;gradientColor=#ffa500;" vertex="1" parent="1">
          <mxGeometry x="410" y="645" width="120" height="80" as="geometry" />
        </mxCell>
        <mxCell id="iajtI-PUkXcmTMDwEMEo-29" style="edgeStyle=orthogonalEdgeStyle;rounded=0;orthogonalLoop=1;jettySize=auto;html=1;entryX=0.008;entryY=0.375;entryDx=0;entryDy=0;entryPerimeter=0;" edge="1" parent="1" source="iajtI-PUkXcmTMDwEMEo-16" target="iajtI-PUkXcmTMDwEMEo-24">
          <mxGeometry relative="1" as="geometry" />
        </mxCell>
        <mxCell id="iajtI-PUkXcmTMDwEMEo-36" style="edgeStyle=orthogonalEdgeStyle;rounded=0;orthogonalLoop=1;jettySize=auto;html=1;entryX=0.5;entryY=0;entryDx=0;entryDy=0;" edge="1" parent="1" source="iajtI-PUkXcmTMDwEMEo-30" target="iajtI-PUkXcmTMDwEMEo-18">
          <mxGeometry relative="1" as="geometry" />
        </mxCell>
        <mxCell id="iajtI-PUkXcmTMDwEMEo-30" value="json" style="rounded=0;whiteSpace=wrap;html=1;fillColor=#dae8fc;gradientColor=#7ea6e0;strokeColor=#6c8ebf;" vertex="1" parent="1">
          <mxGeometry x="40" y="220" width="120" height="60" as="geometry" />
        </mxCell>
        <mxCell id="iajtI-PUkXcmTMDwEMEo-43" style="edgeStyle=orthogonalEdgeStyle;rounded=0;orthogonalLoop=1;jettySize=auto;html=1;entryX=0.75;entryY=0;entryDx=0;entryDy=0;" edge="1" parent="1" source="iajtI-PUkXcmTMDwEMEo-31" target="iajtI-PUkXcmTMDwEMEo-18">
          <mxGeometry relative="1" as="geometry" />
        </mxCell>
        <mxCell id="iajtI-PUkXcmTMDwEMEo-31" value="os" style="rounded=0;whiteSpace=wrap;html=1;fillColor=#dae8fc;gradientColor=#7ea6e0;strokeColor=#6c8ebf;" vertex="1" parent="1">
          <mxGeometry x="40" y="120" width="120" height="60" as="geometry" />
        </mxCell>
        <mxCell id="iajtI-PUkXcmTMDwEMEo-44" style="edgeStyle=orthogonalEdgeStyle;rounded=0;orthogonalLoop=1;jettySize=auto;html=1;entryX=1;entryY=0.25;entryDx=0;entryDy=0;" edge="1" parent="1" source="iajtI-PUkXcmTMDwEMEo-32" target="iajtI-PUkXcmTMDwEMEo-18">
          <mxGeometry relative="1" as="geometry" />
        </mxCell>
        <mxCell id="iajtI-PUkXcmTMDwEMEo-32" value="sys" style="rounded=0;whiteSpace=wrap;html=1;fillColor=#dae8fc;gradientColor=#7ea6e0;strokeColor=#6c8ebf;" vertex="1" parent="1">
          <mxGeometry x="40" y="20" width="120" height="60" as="geometry" />
        </mxCell>
      </root>
    </mxGraphModel>
  </diagram>
</mxfile>
